<?xml version="1.0" standalone="no"?>
<!DOCTYPE svg PUBLIC "-//W3C//DTD SVG 20010904//EN"
 "http://www.w3.org/TR/2001/REC-SVG-20010904/DTD/svg10.dtd">
<svg version="1.0" xmlns="http://www.w3.org/2000/svg"
 width="202.000000pt" height="202.000000pt" viewBox="0 0 202.000000 202.000000"
 preserveAspectRatio="xMidYMid meet">

<g transform="translate(0.000000,202.000000) scale(0.100000,-0.100000)"
fill="#000000" stroke="none">
<path d="M1236 2010 c5 -5 8 -26 6 -46 -4 -32 -7 -35 -28 -30 -54 14 -104 -45
-84 -100 11 -27 16 -30 77 -38 37 -5 41 -4 36 14 -5 17 5 95 23 183 5 23 2 27
-17 27 -15 0 -20 -3 -13 -10z m-18 -89 c10 -6 12 -21 7 -55 -8 -52 -16 -60
-51 -52 -20 5 -24 12 -24 46 0 29 6 43 22 54 26 18 28 19 46 7z"/>
<path d="M803 1993 c-24 -2 -43 -9 -43 -14 0 -5 12 -8 27 -7 26 3 28 -1 45
-62 10 -36 17 -78 15 -93 -3 -21 0 -26 10 -22 8 3 19 5 24 5 6 0 5 7 0 18 -16
28 -43 160 -36 171 3 6 5 10 3 9 -2 -1 -22 -3 -45 -5z"/>
<path d="M969 1943 c-24 -4 -25 -6 -18 -56 4 -31 2 -57 -3 -64 -8 -10 -4 -13
16 -13 23 0 25 2 16 19 -5 11 -10 36 -10 56 0 28 5 38 23 44 35 14 49 -5 45
-64 -3 -50 -2 -51 22 -47 14 3 19 7 13 9 -8 3 -13 23 -13 52 0 67 -13 76 -91
64z"/>
<path d="M1335 1890 c3 -5 -1 -26 -10 -46 -8 -20 -15 -45 -15 -55 0 -21 35
-43 56 -35 8 3 14 1 14 -4 0 -6 6 -10 13 -10 14 0 50 106 42 121 -4 5 -11 9
-16 9 -6 0 -8 -4 -4 -9 8 -14 -24 -88 -41 -95 -21 -8 -44 4 -44 24 0 10 7 34
15 53 19 46 19 57 -1 57 -8 0 -13 -4 -9 -10z"/>
<path d="M645 1860 c-10 -11 -13 -20 -8 -20 6 0 13 7 17 15 8 23 35 18 45 -7
7 -18 4 -29 -15 -49 -28 -29 -30 -42 -10 -58 12 -10 19 -8 35 8 11 11 27 18
35 15 8 -3 17 -1 21 5 3 6 2 11 -4 11 -6 0 -21 21 -33 48 -26 53 -54 64 -83
32z m61 -98 c-14 -14 -16 -14 -22 3 -5 12 -1 23 12 32 17 12 19 12 22 -3 2 -9
-3 -23 -12 -32z"/>
<path d="M406 1831 c-4 -5 -2 -11 2 -13 12 -4 112 -155 112 -168 0 -7 6 -8 19
-1 18 10 17 13 -15 46 -19 20 -34 42 -34 49 0 17 21 36 40 36 16 0 60 -57 60
-78 0 -15 13 -15 26 -2 13 13 -61 100 -85 100 -8 0 -24 -9 -36 -20 l-21 -19
-24 39 c-25 41 -34 47 -44 31z"/>
<path d="M1514 1797 c-2 -7 -3 -33 -2 -57 2 -36 0 -45 -15 -48 -11 -2 -21 5
-26 20 -6 14 -10 17 -10 8 -1 -23 19 -40 46 -40 30 0 39 23 26 65 -12 38 -2
61 22 51 11 -4 15 -12 10 -24 -5 -13 -4 -14 6 -5 10 10 9 15 -1 28 -15 18 -49
20 -56 2z"/>
<path d="M1633 1735 c1 -6 -13 -30 -32 -54 -35 -44 -35 -68 0 -80 12 -4 12 -2
0 13 -12 15 -10 21 16 54 22 26 38 36 53 34 19 -2 21 0 10 12 -6 9 -9 19 -6
24 3 6 -5 9 -19 8 -14 0 -24 -6 -22 -11z"/>
<path d="M366 1684 c-21 -20 -20 -50 0 -58 9 -3 31 -6 49 -6 19 0 37 -5 40
-10 10 -16 -16 -42 -34 -35 -13 5 -13 4 -4 -6 17 -17 55 17 51 45 -2 17 -12
22 -52 26 -52 5 -74 27 -37 37 12 3 21 9 21 14 0 14 -17 11 -34 -7z"/>
<path d="M1724 1642 c6 -10 -51 -67 -72 -74 -10 -2 -7 -9 9 -23 12 -11 19 -15
16 -8 -4 7 7 25 25 42 34 32 52 38 63 21 8 -13 25 -13 25 -1 0 5 -9 13 -20 16
-11 4 -18 10 -15 15 3 4 -2 11 -11 14 -21 8 -26 8 -20 -2z"/>
<path d="M840 1581 c-196 -62 -347 -216 -404 -411 -10 -34 -16 -94 -17 -161 0
-89 4 -119 26 -185 61 -183 196 -318 379 -379 109 -37 262 -37 370 -1 185 63
319 196 382 381 39 114 39 256 0 368 -63 186 -196 320 -378 381 -65 22 -94 26
-190 25 -79 0 -129 -5 -168 -18z m77 -173 c4 -7 13 -26 18 -43 13 -39 56 -60
99 -48 24 6 36 20 54 56 16 34 28 47 43 47 29 0 138 -53 176 -87 l33 -28 -33
-65 -32 -65 -47 -3 c-47 -3 -47 -3 -50 -43 -4 -58 -23 -48 -23 14 l0 52 47 5
c55 7 51 4 72 55 16 37 16 40 -1 53 -23 18 -115 62 -128 62 -5 0 -17 -15 -25
-32 -45 -95 -175 -95 -220 0 -8 17 -19 32 -25 32 -13 0 -105 -44 -128 -62 -18
-13 -18 -15 -1 -53 10 -22 20 -42 22 -45 1 -2 24 -7 50 -10 l47 -5 0 -52 c0
-62 -19 -72 -23 -13 l-3 40 -47 0 -48 0 -33 67 -33 68 33 28 c42 35 146 86
176 87 12 0 25 -6 30 -12z m133 -378 c63 2 146 4 185 4 l70 1 63 -83 c74 -98
72 -112 -14 -112 l-54 0 0 -80 c0 -94 17 -80 -168 -130 l-122 -34 -138 38
c-75 21 -141 42 -147 47 -5 5 -8 43 -6 84 l3 75 -55 0 c-33 0 -59 5 -65 13
-13 15 -7 26 71 126 l50 63 106 -8 c58 -4 158 -6 221 -4z"/>
<path d="M833 1003 l-92 -4 -35 -49 c-20 -28 -36 -52 -36 -55 0 -6 53 -13 146
-19 l81 -5 44 62 c57 80 56 77 17 75 -18 -1 -74 -4 -125 -5z"/>
<path d="M1070 944 c29 -38 53 -70 54 -71 3 -4 216 14 222 19 3 3 -11 29 -31
57 l-37 51 -67 0 c-38 0 -96 3 -131 7 l-63 6 53 -69z"/>
<path d="M951 889 l-34 -62 -83 6 -84 5 0 -64 0 -63 38 -10 c119 -31 204 -52
206 -49 0 2 -1 70 -4 151 l-5 148 -34 -62z"/>
<path d="M1028 802 c-2 -84 -1 -152 0 -152 4 0 136 33 205 51 l37 10 0 63 0
62 -84 -4 -84 -4 -35 63 -36 63 -3 -152z"/>
<path d="M1880 1580 c0 -5 7 -10 16 -10 8 0 12 5 9 10 -3 6 -10 10 -16 10 -5
0 -9 -4 -9 -10z"/>
<path d="M256 1558 c-18 -25 -21 -53 -6 -43 6 3 10 15 10 26 0 22 32 26 49 5
8 -10 9 -21 1 -42 -14 -36 -6 -56 22 -52 15 2 25 12 28 28 3 14 11 25 19 25 8
0 16 6 19 14 3 9 0 11 -8 6 -7 -4 -30 6 -55 24 -52 37 -59 38 -79 9z m90 -83
c-3 -9 -10 -13 -16 -10 -12 7 -13 48 -3 59 11 11 27 -30 19 -49z"/>
<path d="M1820 1543 c0 -16 -81 -74 -93 -66 -5 3 -4 -4 2 -15 11 -20 11 -20
38 3 16 13 39 33 53 44 20 16 23 22 13 32 -9 9 -13 9 -13 2z"/>
<path d="M117 1463 c-2 -12 18 -41 57 -82 l61 -63 -81 6 c-86 8 -94 4 -108
-41 -5 -14 -3 -23 3 -23 6 0 11 9 11 20 0 11 2 20 5 20 15 0 145 -92 145 -102
0 -8 7 -5 15 6 18 23 20 45 4 29 -8 -8 -27 -1 -70 26 -32 20 -59 38 -59 41 0
3 39 3 87 2 l88 -4 -65 68 c-36 37 -58 64 -50 61 65 -23 107 -42 117 -54 10
-13 13 -12 22 6 14 25 14 34 0 26 -12 -8 -139 43 -155 62 -15 18 -22 16 -27
-4z"/>
<path d="M1816 1419 c-37 -29 -32 -99 8 -99 6 0 5 5 -2 12 -18 18 -15 59 6 74
25 19 30 17 47 -16 16 -30 44 -41 46 -17 6 62 -52 88 -105 46z m94 -25 c0 -19
-16 -18 -24 2 -11 27 -7 37 9 24 8 -7 15 -19 15 -26z"/>
<path d="M1905 1266 c-18 -42 -31 -52 -50 -36 -9 7 -15 8 -15 2 0 -16 29 -35
45 -28 8 3 23 21 32 41 17 35 36 45 48 25 4 -6 1 -17 -5 -25 -9 -11 -9 -15 -1
-15 18 0 24 26 11 49 -17 33 -49 26 -65 -13z"/>
<path d="M1840 1265 c-7 -9 -8 -15 -2 -15 5 0 12 7 16 15 3 8 4 15 2 15 -2 0
-9 -7 -16 -15z"/>
<path d="M107 983 c-4 -3 -7 -15 -7 -25 0 -23 38 -25 47 -2 8 21 -24 43 -40
27z"/>
<path d="M1934 975 c-4 -9 -2 -21 4 -27 15 -15 44 -1 40 19 -4 23 -36 29 -44
8z"/>
<path d="M208 587 c-16 -6 -28 -14 -28 -18 0 -10 58 10 66 22 6 11 -3 10 -38
-4z"/>
<path d="M1865 576 c17 -7 32 -11 35 -9 8 7 -24 23 -45 22 -15 0 -13 -3 10
-13z"/>
<path d="M246 561 c-12 -5 -15 -10 -9 -14 6 -4 16 0 23 8 14 17 13 17 -14 6z"/>
<path d="M1831 556 c2 -2 15 -9 29 -15 24 -11 24 -11 6 3 -16 13 -49 24 -35
12z"/>
<path d="M230 515 c-15 -8 -19 -14 -10 -14 18 -1 46 16 40 23 -3 2 -16 -2 -30
-9z"/>
<path d="M1836 516 c10 -8 21 -12 24 -10 5 6 -21 24 -34 24 -6 0 -1 -6 10 -14z"/>
<path d="M1800 490 c0 -6 7 -13 15 -17 24 -9 27 1 5 15 -13 8 -20 8 -20 2z"/>
<path d="M246 464 c-6 -15 -4 -15 11 -3 10 7 20 15 22 16 2 2 -3 3 -11 3 -9 0
-19 -7 -22 -16z"/>
<path d="M1785 460 c9 -15 45 -32 45 -22 0 5 -12 14 -26 20 -14 7 -23 8 -19 2z"/>
<path d="M1760 420 c14 -11 29 -20 34 -20 5 0 -3 9 -17 20 -14 11 -29 20 -34
20 -4 0 3 -9 17 -20z"/>
<path d="M285 419 c-11 -17 1 -21 15 -4 8 9 8 15 2 15 -6 0 -14 -5 -17 -11z"/>
<path d="M1746 385 c10 -8 23 -15 28 -15 6 0 1 7 -10 15 -10 8 -23 15 -28 15
-6 0 -1 -7 10 -15z"/>
<path d="M331 370 c-13 -11 -19 -20 -14 -20 6 0 18 9 28 20 23 25 17 25 -14 0z"/>
<path d="M362 335 c3 -33 16 -33 14 0 0 14 -4 25 -8 25 -4 0 -7 -11 -6 -25z"/>
<path d="M1698 329 c2 -16 8 -29 12 -29 9 0 1 48 -9 55 -4 2 -5 -9 -3 -26z"/>
<path d="M1737 349 c7 -7 15 -10 18 -7 3 3 -2 9 -12 12 -14 6 -15 5 -6 -5z"/>
<path d="M394 298 l-19 -23 23 19 c21 18 27 26 19 26 -2 0 -12 -10 -23 -22z"/>
<path d="M1650 313 c0 -5 9 -18 20 -28 11 -10 20 -14 20 -8 0 5 -9 18 -20 28
-11 10 -20 14 -20 8z"/>
<path d="M415 279 c-11 -17 1 -21 15 -4 8 9 8 15 2 15 -6 0 -14 -5 -17 -11z"/>
<path d="M1635 270 c10 -11 20 -20 23 -20 3 0 -3 9 -13 20 -10 11 -20 20 -23
20 -3 0 3 -9 13 -20z"/>
<path d="M451 247 c-13 -21 -12 -21 5 -5 10 10 16 20 13 22 -3 3 -11 -5 -18
-17z"/>
<path d="M1607 246 c10 -13 19 -23 21 -21 5 5 -22 45 -31 45 -4 0 0 -11 10
-24z"/>
<path d="M475 230 c-10 -11 -13 -20 -7 -20 6 0 16 9 22 20 6 11 9 20 7 20 -2
0 -12 -9 -22 -20z"/>
<path d="M1571 245 c0 -13 28 -50 33 -44 3 2 -4 15 -14 29 -11 14 -20 21 -19
15z"/>
<path d="M506 205 c-9 -14 -13 -25 -9 -25 10 0 36 40 30 46 -2 3 -12 -7 -21
-21z"/>
<path d="M1556 207 c3 -10 9 -15 12 -12 3 3 0 11 -7 18 -10 9 -11 8 -5 -6z"/>
<path d="M596 175 c-9 -13 -16 -30 -16 -37 0 -14 23 17 33 45 9 24 2 21 -17
-8z"/>
<path d="M1470 191 c0 -5 9 -19 20 -32 l20 -24 -16 33 c-15 32 -24 40 -24 23z"/>
<path d="M1510 192 c0 -5 7 -15 15 -22 8 -7 15 -8 15 -2 0 5 -7 15 -15 22 -8
7 -15 8 -15 2z"/>
<path d="M637 170 c-3 -11 -1 -20 4 -20 5 0 9 9 9 20 0 11 -2 20 -4 20 -2 0
-6 -9 -9 -20z"/>
<path d="M1450 137 c27 -15 36 -14 25 2 -3 6 -16 11 -28 11 -21 0 -21 -1 3
-13z"/>
<path d="M681 133 c-1 -6 -4 -20 -7 -30 -5 -17 -5 -17 6 0 6 10 9 23 6 30 -3
9 -5 9 -5 0z"/>
<path d="M1400 135 c0 -5 5 -17 10 -25 5 -8 10 -10 10 -5 0 6 -5 17 -10 25 -5
8 -10 11 -10 5z"/>
<path d="M1285 119 c-10 -14 3 -59 16 -59 8 0 7 5 -1 15 -7 8 -10 24 -7 35 6
22 2 26 -8 9z"/>
<path d="M1360 124 c0 -14 27 -50 33 -44 3 3 -3 16 -13 30 -11 14 -20 20 -20
14z"/>
<path d="M711 115 c0 -5 6 -19 14 -29 8 -11 15 -15 15 -10 0 6 -7 19 -15 30
-8 10 -14 15 -14 9z"/>
<path d="M1222 100 c0 -14 3 -34 8 -45 l9 -20 -1 20 c0 11 -4 31 -8 45 l-8 25
0 -25z"/>
<path d="M771 76 c7 -15 15 -23 17 -16 3 7 -3 19 -13 28 -15 16 -16 15 -4 -12z"/>
<path d="M821 83 c-1 -6 -4 -20 -7 -30 -5 -17 -5 -17 6 0 6 10 9 23 6 30 -3 9
-5 9 -5 0z"/>
<path d="M852 60 c0 -14 2 -19 5 -12 2 6 2 18 0 25 -3 6 -5 1 -5 -13z"/>
<path d="M888 57 c-3 -19 -2 -25 4 -19 6 6 8 18 6 28 -3 14 -5 12 -10 -9z"/>
<path d="M1148 65 c5 -11 12 -27 15 -35 5 -13 6 -13 6 1 1 8 -6 24 -15 35 -15
19 -15 19 -6 -1z"/>
<path d="M1186 71 c-8 -12 3 -41 15 -41 6 0 6 8 0 19 -6 10 -7 21 -4 25 3 3 4
6 0 6 -3 0 -8 -4 -11 -9z"/>
<path d="M920 45 c0 -32 6 -32 12 0 3 14 1 25 -3 25 -5 0 -9 -11 -9 -25z"/>
<path d="M962 45 c0 -17 2 -22 5 -12 2 9 2 23 0 30 -3 6 -5 -1 -5 -18z"/>
<path d="M1078 43 c5 -21 7 -23 10 -9 2 10 0 22 -6 28 -6 6 -7 0 -4 -19z"/>
<path d="M1118 45 c6 -32 12 -32 12 0 0 14 -4 25 -9 25 -4 0 -6 -11 -3 -25z"/>
<path d="M1045 31 c-3 -5 -1 -12 5 -16 5 -3 10 1 10 9 0 18 -6 21 -15 7z"/>
</g>
</svg>
